<svg xmlns="http://www.w3.org/2000/svg" viewBox="0 0 800 500" width="800" height="500">
  <rect width="800" height="500" fill="#0a0a0a"/>
  <rect width="800" height="38" fill="#1a0808"/>
  <circle cx="18" cy="19" r="5.5" fill="#ff5f56"/><circle cx="34" cy="19" r="5.5" fill="#ffbd2e"/><circle cx="50" cy="19" r="5.5" fill="#27c93f"/>
  <rect x="80" y="9" width="640" height="20" rx="10" fill="#ffffff0d"/>
  <text x="400" y="23" font-family="Arial,sans-serif" font-size="10" fill="#ffffff44" text-anchor="middle">themoverguy.online</text>
  <rect y="38" width="800" height="462" fill="#fff9f7"/>
  <!-- Nav -->
  <rect y="38" width="800" height="46" fill="#1a0808"/>
  <text x="24" y="65" font-family="Arial Black,sans-serif" font-size="13" fill="white" font-weight="900">THE MOVER<tspan fill="#FF3B3B"> GUY</tspan></text>
  <rect x="630" y="53" width="80" height="19" rx="9" fill="#FF3B3B"/>
  <text x="670" y="66" font-family="Arial,sans-serif" font-size="7" fill="white" text-anchor="middle" font-weight="700">Get a Quote</text>
  <!-- Hero -->
  <rect y="84" width="800" height="190" fill="#1a0808"/>
  <rect y="84" width="800" height="190" fill="url(#mgGrad)" opacity="0.7"/>
  <defs>
    <linearGradient id="mgGrad" x1="0" y1="0" x2="800" y2="190" gradientUnits="userSpaceOnUse">
      <stop offset="0" stop-color="#FF3B3B" stop-opacity="0.4"/>
      <stop offset="1" stop-color="#1a0808" stop-opacity="0.05"/>
    </linearGradient>
  </defs>
  <text x="60" y="138" font-family="Arial Black,sans-serif" font-size="27" fill="white" font-weight="900">Move Smarter.</text>
  <text x="60" y="168" font-family="Arial Black,sans-serif" font-size="27" fill="#FF3B3B" font-weight="900">Move Safer.</text>
  <text x="60" y="196" font-family="Arial,sans-serif" font-size="10" fill="#ffffff88">Professional moving services with WiPay payments &amp; live tracking.</text>
  <rect x="60" y="214" width="115" height="28" rx="14" fill="#FF3B3B"/>
  <text x="117" y="231" font-family="Arial,sans-serif" font-size="9" fill="white" text-anchor="middle" font-weight="700">Book a Move →</text>
  <!-- Service cards -->
  <rect x="40" y="302" width="222" height="85" rx="10" fill="white" stroke="#ffe0e0" stroke-width="1"/>
  <rect x="290" y="302" width="222" height="85" rx="10" fill="white" stroke="#ffe0e0" stroke-width="1"/>
  <rect x="540" y="302" width="220" height="85" rx="10" fill="white" stroke="#ffe0e0" stroke-width="1"/>
  <text x="151" y="328" font-family="Arial,sans-serif" font-size="8" fill="#FF3B3B" text-anchor="middle" font-weight="700">HOME MOVING</text>
  <text x="401" y="328" font-family="Arial,sans-serif" font-size="8" fill="#FF3B3B" text-anchor="middle" font-weight="700">OFFICE RELOCATION</text>
  <text x="650" y="328" font-family="Arial,sans-serif" font-size="8" fill="#FF3B3B" text-anchor="middle" font-weight="700">ONLINE STORE</text>
  <text x="151" y="348" font-family="Arial,sans-serif" font-size="7" fill="#888" text-anchor="middle">Residential moves islandwide</text>
  <text x="401" y="348" font-family="Arial,sans-serif" font-size="7" fill="#888" text-anchor="middle">Commercial &amp; corporate moves</text>
  <text x="650" y="348" font-family="Arial,sans-serif" font-size="7" fill="#888" text-anchor="middle">WiPay-powered e-commerce</text>
  <!-- Stats row -->
  <rect x="40" y="410" width="720" height="62" rx="10" fill="#1a0808"/>
  <text x="160" y="438" font-family="Arial Black,sans-serif" font-size="20" fill="white" text-anchor="middle">500+</text>
  <text x="160" y="456" font-family="Arial,sans-serif" font-size="7" fill="#ffffff55" text-anchor="middle">Moves Completed</text>
  <rect x="320" y="418" width="1" height="42" fill="#ffffff11"/>
  <text x="400" y="438" font-family="Arial Black,sans-serif" font-size="20" fill="#FF3B3B" text-anchor="middle">4</text>
  <text x="400" y="456" font-family="Arial,sans-serif" font-size="7" fill="#ffffff55" text-anchor="middle">Platforms Live</text>
  <rect x="480" y="418" width="1" height="42" fill="#ffffff11"/>
  <text x="600" y="438" font-family="Arial Black,sans-serif" font-size="20" fill="white" text-anchor="middle">WiPay</text>
  <text x="600" y="456" font-family="Arial,sans-serif" font-size="7" fill="#ffffff55" text-anchor="middle">Payments Integrated</text>
</svg>
